<svg width="128" height="40" viewBox="0 0 128 40" fill="none" xmlns="http://www.w3.org/2000/svg">
<path d="M8.68455 29.718C13.7284 29.718 17.2933 26.059 17.2933 20.7652V12.2016C17.2933 10.6835 16.1935 9.55469 14.7524 9.55469C13.2354 9.55469 12.1735 10.6835 12.1735 12.2016V21.1933C12.1735 23.3342 10.7324 24.8912 8.68455 24.8912C6.59874 24.8912 5.11972 23.3342 5.11972 21.1933V12.2016C5.11972 10.6835 4.01993 9.55469 2.57882 9.55469C1.09979 9.55469 0 10.6835 0 12.2016V20.7652C0 26.059 3.56484 29.718 8.68455 29.718Z" fill="black"/>
<path d="M44.0325 9.55469C41.5295 9.55469 39.2541 10.6057 37.7751 12.3184C36.5615 10.5278 34.6274 9.55469 32.2003 9.55469C30.1524 9.55469 28.4079 10.2553 27.1185 11.5009C26.8151 10.3332 25.9049 9.55469 24.7293 9.55469C23.2882 9.55469 22.1884 10.6835 22.1884 12.2016V27.0321C22.1884 28.5502 23.2882 29.718 24.7672 29.718C26.2083 29.718 27.3081 28.5891 27.3081 27.0321V18.0404C27.3081 15.7827 28.6734 14.3036 30.7592 14.3036C32.7691 14.3036 34.0965 15.7438 34.0965 18.0404V27.0321C34.0965 28.5502 35.1963 29.718 36.6753 29.718C38.1164 29.718 39.2162 28.5891 39.2162 27.0321V17.9236C39.2162 15.7827 40.6194 14.3036 42.6673 14.3036C44.7151 14.3036 46.0046 15.7438 46.0046 18.0404V27.0321C46.0046 28.5502 47.1043 29.718 48.5834 29.718C50.0245 29.718 51.1243 28.5891 51.1243 27.0321V17.3008C51.1243 12.5519 48.3938 9.55469 44.0325 9.55469Z" fill="black"/>
<path d="M66.2028 9.55469C64.117 9.55469 62.2588 10.2943 60.9314 11.5399C60.666 10.3721 59.7179 9.55469 58.5422 9.55469C57.1011 9.55469 56.0013 10.6835 56.0013 12.2016V27.0321C56.0013 28.5502 57.1011 29.718 58.5802 29.718C60.0213 29.718 61.121 28.5891 61.121 27.0321V18.0015C61.121 15.8217 62.6001 14.2646 64.6859 14.2646C66.7717 14.2646 68.1749 15.7827 68.1749 18.0015V27.0321C68.1749 28.5502 69.2747 29.718 70.7158 29.718C72.1948 29.718 73.2567 28.5891 73.2567 27.0321V17.3008C73.2567 12.5909 70.4882 9.55469 66.2028 9.55469Z" fill="black"/>
<path d="M80.7262 29.718C82.2052 29.718 83.305 28.5502 83.305 27.0321V12.2016C83.305 10.6835 82.2052 9.55469 80.7641 9.55469C79.2851 9.55469 78.1853 10.6835 78.1853 12.2016V27.0321C78.1853 28.5502 79.2851 29.718 80.7262 29.718Z" fill="black"/>
<path d="M97.3578 29.718C100.695 29.718 103.426 28.2388 104.981 25.7865C105.284 25.3194 105.398 24.9302 105.398 24.463C105.398 23.1785 104.374 22.1275 103.122 22.1275C102.44 22.1275 101.909 22.3222 101.378 22.945C100.354 24.1127 99.0644 24.8912 97.4337 24.8912C94.5515 24.8912 92.5036 22.7114 92.5036 19.5974C92.5036 16.5223 94.5515 14.3425 97.4337 14.3425C99.1023 14.3425 100.43 15.121 101.378 16.2888C101.833 16.8726 102.402 17.1062 103.122 17.1062C104.374 17.1062 105.398 16.0552 105.398 14.7707C105.398 14.3425 105.284 13.9143 104.943 13.3694C103.502 11.1117 100.543 9.55469 97.3578 9.55469C91.7072 9.55469 87.308 13.9532 87.308 19.5974C87.308 25.2416 91.7072 29.718 97.3578 29.718Z" fill="black"/>
<path d="M117.912 9.55469C112.262 9.55469 107.862 13.9532 107.862 19.5974C107.862 25.2416 112.262 29.679 117.874 29.679C123.525 29.679 128 25.2026 128 19.5974C128 13.9922 123.525 9.55469 117.912 9.55469ZM117.912 14.3425C120.681 14.3425 122.767 16.6002 122.767 19.6363C122.767 22.6336 120.681 24.8523 117.912 24.8523C115.106 24.8523 113.058 22.6725 113.058 19.6363C113.058 16.5612 115.106 14.3425 117.912 14.3425Z" fill="black"/>
<path d="M80.7626 0C78.9802 0 77.5391 1.39105 77.5391 3.16849C77.5391 4.9073 78.9802 6.29835 80.7626 6.29835C82.4692 6.29835 83.9482 4.9073 83.9482 3.16849C83.9482 1.39105 82.4692 0 80.7626 0Z" fill="#FE1B51"/>
</svg>
