<svg width="140" height="139" viewBox="0 0 140 139" fill="none" xmlns="http://www.w3.org/2000/svg">
  <rect x="0.5" width="139" height="139" rx="69.5" fill="#FD3364"/>
  <path d="M103.234 64.4381C102.948 64.3469 102.637 64.3734 102.37 64.5117C102.103 64.6501 101.901 64.8891 101.81 65.1761C101.719 65.463 101.746 65.7745 101.884 66.0419C102.022 66.3093 102.261 66.5108 102.547 66.6021C111.408 69.4291 115.36 73.6458 115.36 80.2807C115.36 86.1822 109.984 90.7622 106.783 92.9693C106.631 93.0736 106.507 93.2133 106.421 93.3762C106.335 93.5392 106.291 93.7207 106.291 93.9049V102.585C103.568 101.551 101.136 99.8726 99.2025 97.6924C99.0714 97.5462 98.9049 97.4362 98.7191 97.373C98.5332 97.3097 98.3343 97.2954 98.1414 97.3313C97.4952 97.4562 96.8354 97.6333 96.1665 97.8127C95.0101 98.1238 93.8175 98.4463 92.6861 98.4463C86.8634 98.4463 82.7867 97.1928 78.6192 94.1251C78.3769 93.9466 78.0736 93.8717 77.7762 93.9171C77.4787 93.9624 77.2115 94.1243 77.0332 94.367C76.8549 94.6097 76.7801 94.9133 76.8254 95.2112C76.8707 95.5091 77.0323 95.7767 77.2746 95.9553C81.8706 99.3386 86.3351 100.717 92.6861 100.717C94.1168 100.717 95.4591 100.356 96.756 100.006C97.1596 99.895 97.5609 99.786 97.9577 99.6929C102.196 104.175 106.989 105.194 107.198 105.235C107.362 105.27 107.532 105.266 107.696 105.226C107.859 105.185 108.011 105.109 108.141 105.001C108.271 104.895 108.376 104.761 108.449 104.609C108.521 104.457 108.558 104.291 108.558 104.123V94.4975C114.412 90.3172 117.627 85.2853 117.627 80.2807C117.627 72.6035 113.054 67.5694 103.234 64.4381Z" fill="white"/>
  <path d="M97.2221 63.2491C97.2221 45.7738 81.3096 32.5947 60.2116 32.5947C39.007 32.5947 22.3984 46.0622 22.3984 63.2536C22.3984 73.5603 29.679 80.9446 36.0027 85.4133V100.482C36.0039 100.671 36.0521 100.857 36.1428 101.022C36.2336 101.188 36.3642 101.329 36.5228 101.432C36.6813 101.534 36.863 101.596 37.0512 101.611C37.2395 101.626 37.4285 101.594 37.6012 101.517C37.9323 101.369 45.6709 97.8476 52.2916 90.5973C55.1599 91.1309 58.4045 91.6441 61.3476 91.6441C82.8038 91.6441 97.2221 80.2316 97.2221 63.2491ZM61.3453 89.3734C58.375 89.3734 54.9989 88.8034 52.0876 88.2471C51.8946 88.2116 51.6958 88.2262 51.5101 88.2894C51.3243 88.3526 51.1578 88.4623 51.0264 88.6082C46.3783 93.858 40.9162 97.1937 38.2701 98.631V84.8207C38.27 84.6364 38.2252 84.455 38.1395 84.292C38.0538 84.129 37.9297 83.9894 37.7781 83.8851C31.7967 79.7638 24.6658 72.8427 24.6658 63.2536C24.6658 47.3338 40.279 34.8654 60.2116 34.8654C80.0195 34.8654 94.9547 47.0681 94.9547 63.2491C94.9547 78.876 81.4479 89.3734 61.3453 89.3734Z" fill="white"/>
  <path d="M41.8941 67.1928C44.4287 67.1928 46.4835 65.1272 46.4835 62.5793C46.4835 60.0313 44.4287 57.9658 41.8941 57.9658C39.3594 57.9658 37.3047 60.0313 37.3047 62.5793C37.3047 65.1272 39.3594 67.1928 41.8941 67.1928Z" fill="white"/>
  <path d="M59.1128 67.1928C61.6475 67.1928 63.7022 65.1272 63.7022 62.5793C63.7022 60.0313 61.6475 57.9658 59.1128 57.9658C56.5782 57.9658 54.5234 60.0313 54.5234 62.5793C54.5234 65.1272 56.5782 67.1928 59.1128 67.1928Z" fill="white"/>
  <path d="M76.3082 67.1928C78.8428 67.1928 80.8976 65.1272 80.8976 62.5793C80.8976 60.0313 78.8428 57.9658 76.3082 57.9658C73.7735 57.9658 71.7188 60.0313 71.7188 62.5793C71.7188 65.1272 73.7735 67.1928 76.3082 67.1928Z" fill="white"/>
</svg>
